<?xml version="1.0" encoding="UTF-8"?>
<svg width="83px" height="82px" viewBox="0 0 83 82" version="1.1" xmlns="http://www.w3.org/2000/svg" xmlns:xlink="http://www.w3.org/1999/xlink">
    <title>Untitled</title>
    <g id="Page-1" stroke="none" stroke-width="1" fill="none" fill-rule="evenodd">
        <g id="icon" fill-rule="nonzero">
            <path d="M82.0004802,75.9424124 C82.0004802,79.2874108 79.2876509,82 75.9428926,82 L6.05734748,82 C2.71258916,82 0,79.2871707 0,75.9424124 L0,6.05758758 C0,2.71114859 2.71258916,0 6.05734748,0 L75.9426525,0 C79.2876509,0 82.0004802,2.71114859 82.0004802,6.05758758 L82.0004802,75.9424124 L82.0004802,75.9424124 Z" id="Shape" fill="#1F4B7F"></path>
            <g id="flexmail" transform="translate(13.000000, 12.000000)">
                <path d="M40.5509164,25.8147762 L55.6643912,4.10184703 C56.5198709,2.69191656 55.6643912,1 53.9534318,1 L37.9844773,1 C37.1289975,1 36.2735178,1.56397219 35.703198,2.40993047 L30,10.5875272 C30,10.5875272 30,10.8695133 30,11.1514994 L39.6954367,25.5327901 C39.6954367,26.0967623 40.2657565,26.0967623 40.5509164,25.8147762" id="Path" fill="#829FD1"></path>
                <path d="M55.5367483,56.1349862 L40.498441,33.214876 C40.2146993,32.9283747 39.9309577,32.9283747 39.647216,33.214876 L30,47.2534435 C30,47.2534435 30,47.5399449 30,47.8264463 L36.8097996,57.8539945 C37.3772829,58.7134986 38.2285078,59 39.0797327,59 L54.1180401,59 C55.5367483,59 56.6717149,57.2809917 55.5367483,56.1349862" id="Path" fill="#829FD1"></path>
                <path d="M37.5798843,27.5144231 L20.4951798,1.41826923 C19.9350255,0.567307692 19.0947941,0 18.2545628,0 L2.29016671,0 C0.889781086,0 -0.230527409,1.70192308 0.609703962,3.12019231 L17.9744856,29.2163462 L0.329626838,55.8798077 C-0.510604533,57.2980769 0.329626838,59 2.01008958,59 L16.8541771,59 C17.6944085,59 18.5346399,58.4326923 19.0947941,57.8653846 L37.5798843,30.6346154 C38.1400386,29.7836538 38.1400386,28.6490385 37.5798843,27.5144231" id="Path" fill="#FFFFFF"></path>
            </g>
        </g>
    </g>
</svg>